Coordinates
version=1
nRows=5
nColumns=63
inDegrees=yes

Units are S.I. units (second, meters, Newtons, ...)
If the header above contains a line with 'inDegrees', this indicates whether rotational values are in degrees (yes) or radians (no).

endheader
time	pelvis_tilt	pelvis_list	pelvis_rotation	pelvis_tx	pelvis_ty	pelvis_tz	hip_flexion_r	hip_adduction_r	hip_rotation_r	knee_angle_r	knee_angle_r_beta	ankle_angle_r	subtalar_angle_r	mtp_angle_r	hip_flexion_l	hip_adduction_l	hip_rotation_l	knee_angle_l	knee_angle_l_beta	ankle_angle_l	subtalar_angle_l	mtp_angle_l	L5_S1_Flex_Ext	L5_S1_Lat_Bending	L5_S1_axial_rotation	L4_L5_Flex_Ext	L4_L5_Lat_Bending	L4_L5_axial_rotation	L3_L4_Flex_Ext	L3_L4_Lat_Bending	L3_L4_axial_rotation	L2_L3_Flex_Ext	L2_L3_Lat_Bending	L2_L3_axial_rotation	L1_L2_Flex_Ext	L1_L2_Lat_Bending	L1_L2_axial_rotation	L1_T12_Flex_Ext	L1_T12_Lat_Bending	L1_T12_axial_rotation	Abs_r3	Abs_r2	Abs_r1	Abs_t1	Abs_t2	neck_flexion	neck_bending	neck_rotation	arm_flex_r	arm_add_r	arm_rot_r	elbow_flex_r	pro_sup_r	wrist_flex_r	wrist_dev_r	arm_flex_l	arm_add_l	arm_rot_l	elbow_flex_l	pro_sup_l	wrist_flex_l	wrist_dev_l
      0.00000000	     -2.27983286	     -4.75155960	     79.86020965	      0.19999391	      0.94561379	      0.46252690	      4.19954951	      1.94529703	     -6.68103786	      6.49906305	      0.11343005	     16.45158072	     -8.14312373	      0.00000000	      3.17834573	     -2.50748341	     -4.06781316	      4.10265758	      0.07160488	     19.45899858	     15.05939478	      0.00000000	      0.30433001	      0.28926261	     -0.07153441	      0.56517126	      0.38471927	     -0.07600531	      0.49998377	      0.70331310	     -0.07600531	      0.34781877	      0.70331310	     -0.06259261	      0.28260085	      0.58986431	     -0.05812171	      0.17389417	      0.44806778	     -0.05365080	      2.17379882	      3.27219646	     -0.39785291	      0.00000000	      0.00000000	     28.13639124	     -6.63785607	    -11.60183588	      7.85778471	    -18.40731622	     45.41132677	     66.92884512	     37.11932022	    -13.89558096	     28.01510122	     26.20377555	    -11.03721865	     64.66566604	     61.79117434	     77.58867824	      6.35488660	     27.81344376
      0.01851852	     -2.33187984	     -4.96165150	     78.93240212	      0.20107630	      0.94490727	      0.46314921	      4.78001434	      2.03102143	     -5.10201443	      7.31331458	      0.12764142	     16.06946035	    -10.61846731	      0.00000000	      3.33041521	     -2.50314142	     -5.48534694	      4.14700939	      0.07237897	     20.06966456	     15.49530204	      0.00000000	      0.32868564	      0.30905999	      0.04915138	      0.61040210	      0.41104979	      0.05222334	      0.53999764	      0.75144846	      0.05222334	      0.37565482	      0.75144846	      0.04300746	      0.30521749	      0.63023513	      0.03993550	      0.18781098	      0.47873393	      0.03686354	      2.34776867	      3.49614842	      0.27336524	      0.00000000	      0.00000000	     28.21443693	     -4.29690349	     -8.37929344	      7.51982508	    -18.61502261	     45.44114066	     67.03233292	     34.89982914	    -15.46513270	     24.84996316	     25.47561890	    -11.07609663	     64.05104923	     61.41924716	     75.23650310	      6.29816143	     26.30654485
      0.03703704	     -2.34842753	     -5.14039111	     78.41849901	      0.20170096	      0.94442651	      0.46355032	      5.29523247	      2.04685842	     -5.02379681	      8.08490275	      0.14110817	     16.25410769	    -10.92500981	      0.00000000	      3.50667678	     -2.51614241	     -5.98576740	      4.21236856	      0.07351970	     20.46816155	     15.35130775	      0.00000000	      0.33970650	      0.32025788	      0.13298079	      0.63086895	      0.42594298	      0.14129208	      0.55810382	      0.77867501	      0.14129208	      0.38825056	      0.77867501	      0.11635819	      0.31545146	      0.65306987	      0.10804689	      0.19410830	      0.49607946	      0.09973559	      2.42648959	      3.62282120	      0.73959924	      0.00000000	      0.00000000	     28.24108124	     -3.55841711	     -7.48366296	      6.93178922	    -18.56656213	     44.41539491	     67.14694790	     34.21382987	    -15.64494712	     23.58567333	     24.89690578	    -11.08737662	     63.68950711	     61.39387068	     74.22384074	      5.84892999	     25.29402995
      0.05555556	     -2.43666254	     -5.20000155	     77.65289698	      0.20269821	      0.94421767	      0.46419422	      5.55823373	      2.05781347	     -4.19102945	      8.43813015	      0.14727315	     16.17414468	    -11.57096781	      0.00000000	      3.52714981	     -2.47929867	     -7.23005858	      4.23124918	      0.07384923	     20.66286464	     15.78259233	      0.00000000	      0.33245419	      0.32018617	      0.29198286	      0.61740067	      0.42584761	      0.31023179	      0.54618898	      0.77850066	      0.31023179	      0.37996189	      0.77850066	      0.25548501	      0.30871696	      0.65292364	      0.23723608	      0.18996432	      0.49596838	      0.21898715	      2.37468700	      3.62201003	      1.62392109	      0.00000000	      0.00000000	     28.23681771	     -3.20014206	     -6.94041525	      6.84065543	    -18.88415348	     44.66209309	     67.73484701	     30.81411038	    -17.71431548	     21.76183712	     25.59102525	    -11.47981070	     66.43891848	     61.52922681	     69.78765764	      2.35085095	     22.95343568
      0.07407407	     -2.49289436	     -5.28444696	     77.22538634	      0.20317369	      0.94406836	      0.46465409	      5.83742508	      2.03047795	     -4.08801107	      8.79036595	      0.15342083	     16.43415752	    -11.29831826	      0.00000000	      3.64423466	     -2.45805955	     -7.98409893	      4.30881294	      0.07520297	     20.72129368	     15.97613406	      0.00000000	      0.32527372	      0.31768850	      0.38883597	      0.60406582	      0.42252570	      0.41313821	      0.53439219	      0.77242782	      0.41313821	      0.37175533	      0.77242782	      0.34023147	      0.30204917	      0.64783039	      0.31592922	      0.18586140	      0.49209948	      0.29162698	      2.32339763	      3.59375584	      2.16258900	      0.00000000	      0.00000000	     28.21797663	     -3.83692741	     -7.75042315	      6.59254813	    -18.99140814	     44.21624474	     68.21987899	     29.51631097	    -18.49106732	     21.46602671	     25.81987508	    -11.70660252	     67.88838961	     61.77763989	     67.65702846	      0.15795203	     21.18127517
